<?xml version="1.0" encoding="UTF-8"?>
<svg id="Camada_1" data-name="Camada 1" xmlns="http://www.w3.org/2000/svg" viewBox="0 0 32 32">
  <defs>
    <style>
      .cls-1 {
        fill: #00d895;
      }
    </style>
  </defs>
  <path class="cls-1" d="M21.05,12.4h0c-.49-.49-1.17-.79-1.91-.79V3.5c2.99,0,5.69,1.21,7.65,3.17l-5.74,5.74Z"/>
  <path d="M23.86,25.31c-1.98,1.97-4.72,3.19-7.74,3.19s-5.75-1.23-7.72-3.22c-1.97-1.98-3.19-4.72-3.19-7.74s1.23-5.75,3.22-7.72c1.98-1.97,4.72-3.19,7.74-3.19v8.2c-.77,0-1.45.3-1.95.8-.5.49-.8,1.18-.8,1.93s.3,1.44.8,1.93c.49.5,1.18.8,1.93.8s1.44-.3,1.93-.8l5.79,5.81Z"/>
</svg>